<svg id="Capa_1" enable-background="new 0 0 512 512" height="512" viewBox="0 0 512 512" width="512" xmlns="http://www.w3.org/2000/svg"><g><circle cx="502" cy="295.5" r="10"/><path d="m509.07 71.43c-1.86-1.86-4.44-2.93-7.07-2.93h-492c-2.63 0-5.21 1.07-7.07 2.93s-2.93 4.44-2.93 7.07v355c0 2.63 1.07 5.21 2.93 7.07s4.44 2.93 7.07 2.93h492c2.63 0 5.21-1.07 7.07-2.93s2.93-4.44 2.93-7.07v-93c0-5.51-4.49-10-10-10s-10 4.49-10 10v83h-48.338l-33.087-55.145c-1.807-3.012-5.062-4.855-8.575-4.855h-292c-3.557 0-6.846 1.889-8.638 4.961l-32.106 55.039h-49.256v-335h472v162c0 5.51 4.49 10 10 10s10-4.49 10-10v-172c0-2.63-1.07-5.21-2.93-7.07zm-393.326 312.07h280.594l24 40h-327.928z"/><path d="m472 173.5c0-2.652-1.054-5.196-2.929-7.071l-55-55c-1.875-1.875-4.419-2.929-7.071-2.929h-302c-2.652 0-5.196 1.054-7.071 2.929l-55 55c-1.875 1.875-2.929 4.419-2.929 7.071v105c0 2.652 1.054 5.196 2.929 7.071l55 55c1.875 1.875 4.419 2.929 7.071 2.929h302c2.652 0 5.196-1.054 7.071-2.929l55-55c1.875-1.875 2.929-4.419 2.929-7.071zm-20 100.858-49.142 49.142h-293.716l-49.142-49.142v-96.716l49.142-49.142h293.716l49.142 49.142z"/><circle cx="50" cy="393.5" r="10"/><circle cx="462" cy="393.5" r="10"/><path d="m120 186c-22.056 0-40 17.944-40 40s17.944 40 40 40 40-17.944 40-40-17.944-40-40-40zm0 60c-11.028 0-20-8.972-20-20s8.972-20 20-20 20 8.972 20 20-8.972 20-20 20z"/><path d="m352 226c0 22.056 17.944 40 40 40s40-17.944 40-40-17.944-40-40-40-40 17.944-40 40zm60 0c0 11.028-8.972 20-20 20s-20-8.972-20-20 8.972-20 20-20 20 8.972 20 20z"/><path d="m321 186h-130c-5.523 0-10 4.477-10 10v60c0 5.523 4.477 10 10 10h130c5.523 0 10-4.477 10-10v-60c0-5.523-4.477-10-10-10zm-120 20h20v40h-20zm40 0h30v40h-30zm70 40h-20v-40h20z"/></g></svg>